<svg id="Calque_1" data-name="Calque 1" xmlns="http://www.w3.org/2000/svg" viewBox="0 0 3000 1800"><defs><style>.cls-1{fill:#005e2d;}.cls-2{fill:#004a22;}.cls-3{font-size:558.28px;}.cls-3,.cls-6,.cls-8{fill:#fff;}.cls-3,.cls-8{font-family:Palatino-Roman, Palatino;}.cls-4{letter-spacing:-0.02em;}.cls-5,.cls-9{fill:#c6ce00;}.cls-5{stroke:#c6ce00;}.cls-5,.cls-7{stroke-miterlimit:10;}.cls-7{fill:#e2b634;stroke:#e2b634;stroke-width:3px;}.cls-8{font-size:466.97px;letter-spacing:0.03em;}.cls-10{fill:#f8aa33;}.cls-11{fill:#92adb2;}.cls-12{fill:#344955;}.cls-13{fill:#5b757f;}</style></defs><title>Plan de travail 1</title><rect class="cls-1" x="-23" y="0.03" width="3045" height="1802.22"/><path class="cls-2" d="M2278.08,1670.2,2196,1521.09a43.45,43.45,0,0,0-16.31-16.59c-76.92-45-138.38-87.93-138.38-87.93-105.63-67.73-220-215.59-255-262.55-3.62-4.88,1-11.57,7-10.18,243.46,56.72,378.5-61.87,378.5-61.87,164-129.18,87.79-292.79,87.79-292.79C2178.16,600.07,1998,627.1,1998,627.1c-130.58,9.34-219.07,132.39-219.07,132.39-4,5.44-7.11,9.06-8.78,12.27-5.3,10.17,1.11,21.88,12,20.76l128.21-2.78a62.92,62.92,0,0,0,32.19-10c151.62-97.55,205.84,46.83,209.46,57.14.14.28,1.95,5.29,2.09,5.71C2176.76,951,2087.3,999.75,2040.47,1019a215.83,215.83,0,0,1-28.43,9.62c-130.44,38.88-321.5-40.56-357.31-56.31a6.66,6.66,0,0,1-3.35-8.64,1382.35,1382.35,0,0,0,54.77-151.48c50.31-169.32,44-274,44-274-4.32-270.77-168.76-369.57-168.76-369.57-178.52-104.52-336.83,1.11-336.83,1.11C1113,246,1081.69,417.51,1081.41,419v.14c-25.51,224.93,120.4,375,171.27,420,4.74,4.18,1.39,12.26-5,11.56-396.89-38.88-485,249.46-485,249.46-59.65,172.38,51.7,288.61,51.7,288.61,138.94,152.18,334.46,106.75,334.46,106.75,260.18-50,403.86-330.14,428.25-381.57a6.53,6.53,0,0,1,10.45-2.09c62.85,59,174.89,202.35,174.89,202.35,196.08,231.75,444.14,343.94,444.14,343.94,25.92,13.1,47.24,19.65,64.94,21.88A6.75,6.75,0,0,0,2278.08,1670.2Zm-797.27-625.44c-4.46,8.92-13.52,26.48-26.9,48.92-39.3,66-116.22,176.15-225.9,244.71,0,0-160.68,95.6-295.3-1.81,0,0-133.36-83.62-24.11-251.54,0,0,70-117.9,246-118,0,0,95.32-8.08,275.23,51.84,15.19,5,30.8,10.73,47.25,16.72A6.86,6.86,0,0,1,1480.81,1044.76Zm141.73-438.84s-5.16,94.77-47.25,219.49c-8.08,24.25-17.56,49.75-28.84,75.81a6.67,6.67,0,0,1-9.9,2.93c-13.66-9.48-47.1-32.89-90.58-65.22-31.08-23.41-67.45-51.28-105.36-81.94,0,0-132.11-109.26-140.33-263.95,0,0-13-181.44,152.32-240.39,0,0,148.69-53.1,223.53,82.78C1576.13,335.43,1636.75,439.81,1622.54,605.92Z"/><text class="cls-3" transform="translate(145.24 1295.72)">Ma<tspan class="cls-4" x="807.16" y="0">r</tspan><tspan x="1017.88" y="0">guer</tspan></text><path class="cls-5" d="M2432.85,804.78c-11.53,8.09-17.09,31.33-22.14,43.6-6.94,16.9-13.16,34.06-18.79,51.38-11.26,34.71-20.1,70.07-27.53,105.64-16.83,80.66-26.48,163-22.25,244.89s22.63,163.64,59.88,237.44c6.32,12.52,14.42,31.14,27,38.81-4.28-9.47-8.43-19.62-12.92-29.21-4.71-10.08-8.74-20.34-13.13-30.52a541.24,541.24,0,0,1-25-71.38c-35.14-128.82-25-267.65,5.76-396.93a1029,1029,0,0,1,62.29-183c.9-2-11.23-9.58-12.92-10.86Z"/><path class="cls-6" d="M2435.79,813.5c-16.1,21.7-11.95,80.41,14.28,94.3,12.34,6.53,28.35,4.5,31.75-9.69,1.62-6.77,5-25.33-9.66-39.3,0,0-14.73-19.47-18.31-29s-2.48-11.75-2.48-11.75l-15.58-4.52Z"/><path class="cls-6" d="M2371.7,764.52c-13.64-1.8-43.9-12.15-50.92-14.31a188.39,188.39,0,0,1-37.07-15.34c-14.28-8-29.45-18.66-36.68-33.29-3.76-7.61-7.53-26.33.76-33.12,15.39-12.62,46.58,8.72,58.41,17.85,10.13,7.82,19.48,16.42,30.09,23.62,6,4.06,22.75,15.48,30.07,22.44l31,28.83-3.18,6.84Z"/><path class="cls-6" d="M2485.46,819c7.09,8.26,16.92,14.87,24.91,22.37,12.22,11.49,25.54,22.58,40.52,30.8,20.68,11.34,51,25.83,75.89,16.09,41.8-16.37-53.25-63.88-70.84-67.29-8-1.55-43.8-7.77-50-9.41S2485.46,819,2485.46,819Z"/><path class="cls-6" d="M2412.53,741.42c-9.51-14-42.07-122.09-36.09-139.81,11.52-34.13,39.67,15.68,44.17,28.58,7.57,21.7,10.06,44.83,13.7,67.33,1.82,11.24,4.91,23.58,5,35Z"/><path class="cls-6" d="M2445.57,729.79c-2.13-25.72,1.57-46,8-71.23,5.07-19.89,21-52.14,45.11-56.45,40.28-7.18-1.12,116.43-18.29,133.13Z"/><path class="cls-6" d="M2483.72,742c7.81-19.19,71.07-115.49,98.59-81.74,18,22.07-17.88,53.93-32.44,67.46-13.23,12.3-28.09,27.91-44.9,35.33Z"/><path class="cls-6" d="M2516.41,777.88c18.8-1.56,36.5-2.9,54.12-10,11.08-4.43,63.2-26.77,45.3-43.92-10.36-9.91-37.49,1.65-48.6,6-21.44,8.47-37.34,21.89-56.66,33.4l-3.73,4.67,5,10.14Z"/><path class="cls-6" d="M2515.07,784.13c21.7-7.85,51.66-2.54,74.63-1.38a349,349,0,0,1,69.16,10.53c10.88,2.83,47,19.57,22.61,28.4-27.12,9.82-63.24,9.39-91.35,5.35-15.18-2.18-29.8-5.22-44.7-8.06-11.77-2.24-26-8.09-37.48-8.81Z"/><path class="cls-6" d="M2454.81,818.94c-4.22,11.95,14.26,37.15,22.39,45.75,12.31,13,29.57,18.54,47.7,20.18,17.88,1.63,20-10.84,9-22.42-13.35-14.09-31.33-31.79-48.34-41.67Z"/><path class="cls-6" d="M2416.11,800.77c-8.65,2.85-18.6,9.4-27.69,15.58-13.41,9.1-29.09,24.37-26.05,41.76,4.83,27.53,34.63,8.74,45.23-3.47,10.33-11.88,18.79-23.1,25.78-36.56l2.27-6.27Z"/><path class="cls-6" d="M2392.46,772.35c-11.55-8.9-32.89-7.8-47.16-8.57-24.07-1.31-53.16,0-75,10.77-8.82,4.36-22.66,14.93-20.19,26.17,2.79,12.69,20.61,8.72,30.41,7,23.73-4.18,48.38-8.66,72.61-6.48a234.84,234.84,0,0,0,31.86.67c7.84-.32,20.94,1.81,27.32-3.13Z"/><path class="cls-6" d="M2397.71,756.24c-24.34-14.34-45.6-36.86-61.76-59.37-16.75-23.33-33.68-47.91-45-74.17-2.65-6.13-13.43-30.31-.92-32.21,7.58-1.15,22.27,12.45,26.9,16.61,8.64,7.74,15.8,16.93,22.89,25.9,11,14,21.27,28.57,31.74,42.9,3.45,4.72,31.9,47,37.48,58.57l1.63,8.18Z"/><path class="cls-7" d="M2421,803.27c-8-5.83-17.53-11.43-22.56-20.09-13.18-22.69,7.47-42.71,29.92-48.48,26.21-6.73,49.44.54,68.23,19.2,14.09,14,29.36,50.88,3.3,59.34-22.11,7.17-44.63,10.1-64.25-1.43C2435.65,811.81,2425.58,806.61,2421,803.27Z"/><text class="cls-8" transform="translate(1053.71 862.43)">asilic</text><text class="cls-3" transform="translate(2417.57 1295.72)">te</text><path class="cls-9" d="M883.88,623.1c45.26-119.68,50-268.17,50-268.17C849,335,782.78,357.76,742.39,384.88c-139,93.33-135.37,181.55-111.63,236,22.83,100.35,24.36,205.64,20,286.71l8.9.55c.06-.49.09-1,.15-1.45,1.37-1.7,13.52-17,56.42-68.41l.06,0c21.75-19.34,49-77.73,209.88-169.93-13.53,8.41-58.78,42.87-196.23,181.1,0,0,167.53,150.84,286-232.68C1015.92,616.73,953,611.47,883.88,623.1ZM689.26,702.41c12.07,16.56,15.32,16.93,26.54,26-9.37,24-12.26,52.93-6.12,88,0,0-5.93,20.71-48.45,74.85C670.5,782.89,669,676.3,669,676.3,713.78,487.23,863.7,409.1,868.39,406.72,742.21,508.88,689.26,702.41,689.26,702.41Z"/><path class="cls-10" d="M2885.18,1720.64c.08-29.32,13.18-53.05,29.29-53.11h0a53.19,53.19,0,1,0-.28,106.37h0C2898.08,1773.76,2885.1,1750,2885.18,1720.64Z"/><path class="cls-11" d="M2943.67,1720.79c-.07,29.3-13.17,53-29.27,53.1a53.18,53.18,0,0,0,.29-106.35C2930.78,1667.69,2943.75,1691.49,2943.67,1720.79Z"/><path class="cls-12" d="M2914.4,1773.89c16.1-.07,29.2-23.8,29.27-53.1s-12.89-53.1-29-53.25h-.22l-.28,106.36h.21Z"/><path class="cls-13" d="M2885.18,1720.64c-.08,29.31,12.9,53.12,29,53.25l.28-106.36C2898.36,1667.59,2885.26,1691.32,2885.18,1720.64Z"/></svg>