<?xml version="1.0"?>
<svg xmlns="http://www.w3.org/2000/svg" xmlns:xlink="http://www.w3.org/1999/xlink" xmlns:svgjs="http://svgjs.com/svgjs" version="1.1" width="512" height="512" x="0" y="0" viewBox="0 0 512 512" style="enable-background:new 0 0 512 512" xml:space="preserve" class=""><g><g xmlns="http://www.w3.org/2000/svg"><path d="m256 126.361c-73.9 0-134.023 60.083-134.023 133.935 0 42.014 19.599 81.264 52.817 106.555v24.672c0 13.947 5.889 26.536 15.302 35.443v40.731c0 19.743 16.063 35.806 35.806 35.806h60.197c19.743 0 35.806-16.063 35.806-35.806v-40.731c9.412-8.906 15.302-21.496 15.302-35.443v-24.672c33.219-25.292 52.817-64.541 52.817-106.555-.001-73.852-60.124-133.935-134.024-133.935zm35.904 341.337c0 3.201-2.604 5.806-5.806 5.806h-60.197c-3.201 0-5.806-2.604-5.806-5.806v-27.486c1.175.085 2.357.143 3.554.143h64.701c1.196 0 2.379-.058 3.554-.143zm21.951-121.015c-4.155 2.785-6.649 7.458-6.649 12.461v32.38c0 10.383-8.459 18.831-18.855 18.831h-17.351v-114.339c20.788-6.415 35.936-25.798 35.936-48.653 0-8.284-6.716-15-15-15s-15 6.716-15 15c0 11.529-9.392 20.909-20.936 20.909s-20.936-9.379-20.936-20.909c0-8.284-6.716-15-15-15s-15 6.716-15 15c0 22.855 15.148 42.238 35.936 48.653v114.338h-17.351c-10.396 0-18.855-8.447-18.855-18.831v-32.38c0-5.002-2.494-9.676-6.649-12.461-28.909-19.372-46.168-51.666-46.168-86.386 0-57.31 46.665-103.935 104.023-103.935s104.023 46.625 104.023 103.935c0 34.721-17.258 67.015-46.168 86.387z" fill="#344a56" data-original="#000000" style="" class=""/><path d="m64.523 251.157h-49.523c-8.284 0-15 6.716-15 15s6.716 15 15 15h49.523c8.284 0 15-6.716 15-15s-6.715-15-15-15z" fill="#344a56" data-original="#000000" style="" class=""/><path d="m129.906 119.714-35.018-34.993c-5.86-5.855-15.358-5.852-21.213.008s-5.853 15.357.008 21.213l35.019 34.993c2.929 2.926 6.766 4.389 10.603 4.389 3.841 0 7.682-1.466 10.61-4.397 5.855-5.86 5.852-15.358-.009-21.213z" fill="#344a56" data-original="#000000" style="" class=""/><path d="m254.159 87.983c8.284 0 15-6.716 15-15v-49.486c0-8.284-6.716-15-15-15s-15 6.716-15 15v49.486c0 8.284 6.716 15 15 15z" fill="#344a56" data-original="#000000" style="" class=""/><path d="m435.722 82.128c-5.854-5.86-15.353-5.864-21.213-.008l-35.019 34.993c-5.86 5.855-5.863 15.353-.008 21.213 2.929 2.932 6.77 4.397 10.61 4.397 3.837 0 7.674-1.463 10.603-4.39l35.019-34.993c5.86-5.855 5.863-15.352.008-21.212z" fill="#344a56" data-original="#000000" style="" class=""/><path d="m497 247.478h-49.523c-8.284 0-15 6.716-15 15s6.716 15 15 15h49.523c8.284 0 15-6.716 15-15s-6.716-15-15-15z" fill="#344a56" data-original="#000000" style="" class=""/></g></g></svg>
